<?xml version="1.0" standalone="no"?>
<!DOCTYPE svg PUBLIC "-//W3C//DTD SVG 20010904//EN"
 "http://www.w3.org/TR/2001/REC-SVG-20010904/DTD/svg10.dtd">
<svg version="1.0" xmlns="http://www.w3.org/2000/svg"
 width="700.000000pt" height="700.000000pt" viewBox="0 0 700.000000 700.000000"
 preserveAspectRatio="xMidYMid meet">
<metadata>
Created by potrace 1.14, written by Peter Selinger 2001-2017
</metadata>
<g transform="translate(0.000000,700.000000) scale(0.100000,-0.100000)"
fill="#000000" stroke="none">
<path d="M640 6980 c-181 -11 -287 -58 -420 -190 -85 -83 -139 -171 -182 -293
l-28 -78 0 -2924 0 -2925 25 -65 c90 -240 245 -394 469 -468 58 -19 102 -20
961 -29 495 -5 1796 -7 2892 -4 2237 6 2074 0 2241 82 162 79 293 225 361 405
l31 81 0 2731 c-1 2682 -5 3097 -33 3204 -20 77 -102 207 -178 282 -76 76
-146 121 -264 168 l-85 33 -2837 -2 c-1561 -1 -2890 -4 -2953 -8z m4760 -1204
c88 -46 127 -113 150 -259 54 -331 -106 -797 -441 -1292 -237 -351 -482 -602
-807 -828 -70 -48 -130 -91 -134 -95 -4 -4 8 -45 27 -91 41 -98 89 -255 179
-586 146 -536 213 -665 347 -665 108 0 229 89 554 410 301 296 329 320 370
320 69 0 105 -85 105 -244 0 -390 -493 -928 -1022 -1114 -127 -45 -223 -62
-351 -62 -195 0 -321 45 -428 151 -151 151 -209 350 -295 1023 -45 357 -103
690 -122 707 -4 3 -36 16 -71 28 -133 44 -262 143 -298 229 -35 83 -12 203 49
258 100 92 362 121 536 61 l72 -25 47 50 c65 67 205 255 280 376 183 294 284
511 668 1428 57 137 96 201 132 215 52 19 138 27 278 26 114 -2 146 -6 175
-21z m-2043 -176 c88 -11 143 -38 180 -87 26 -34 28 -42 26 -127 -3 -118 -37
-253 -96 -376 -36 -73 -51 -122 -67 -210 -30 -164 -102 -436 -235 -890 -226
-773 -292 -1022 -369 -1410 -68 -341 -86 -477 -116 -889 -7 -98 -16 -158 -29
-185 -63 -143 -277 -224 -601 -229 -116 -2 -131 0 -157 19 -44 33 -70 78 -84
151 -18 89 -19 618 -1 753 92 698 407 1855 710 2610 60 151 68 176 54 184 -41
24 -397 -20 -572 -70 -127 -37 -310 -131 -415 -215 -49 -39 -115 -88 -146
-110 l-57 -38 -40 28 c-56 42 -85 106 -90 206 -10 191 81 368 252 490 261 185
767 323 1391 380 288 25 363 28 462 15z"/>
</g>
</svg>
