<svg
    class="img-fluid"
    id="outputsvg"
    xmlns="http://www.w3.org/2000/svg"
    width="512"
    height="512"
    viewBox="0 0 5120 5120">
    <g
      id="l3BRF5ADynwiNwVVr0ZtegM"
      fill="rgb(99,179,237)"
      style="transform: none;">
      <g>
        <path
          id="p32w58Szz"
          d="M450 5110 c-115 -14 -218 -65 -301 -151 -56 -57 -90 -113 -121 -199 l-23 -65 0 -2130 0 -2130 22 -71 c29 -91 90 -182 161 -240 66 -54 107 -76 187 -101 57 -17 149 -18 2190 -18 l2130 0 72 26 c134 49 232 137 295 264 56 111 53 -11 53 2280 l0 2120 -23 64 c-71 195 -233 327 -432 351 -100 12 -4109 12 -4210 0z m1229 -916 c80 -18 136 -43 179 -79 56 -47 65 -76 73 -235 14 -271 63 -572 154 -937 53 -217 88 -339 240 -852 76 -257 118 -422 135 -536 8 -52 21 -93 37 -116 31 -47 69 -160 77 -230 9 -68 -15 -111 -77 -139 -52 -24 -125 -25 -347 -5 -484 45 -844 145 -1039 291 -130 97 -197 274 -145 380 31 61 45 64 99 18 136 -114 233 -169 369 -208 115 -34 273 -56 395 -56 l101 0 0 28 c0 16 -33 112 -74 213 -194 485 -413 1278 -492 1779 -21 138 -30 467 -15 556 23 132 55 157 186 148 44 -3 109 -12 144 -20z m1677 -54 c97 -25 241 -93 352 -166 94 -63 234 -192 296 -273 116 -151 183 -312 170 -406 -7 -56 -29 -105 -46 -105 -6 0 -83 73 -172 163 -197 200 -325 312 -391 343 -67 32 -164 33 -206 3 -64 -45 -111 -163 -198 -496 -57 -218 -107 -377 -137 -435 -8 -15 -14 -42 -14 -61 0 -31 6 -37 73 -80 237 -150 449 -365 638 -647 216 -321 335 -650 309 -854 -17 -135 -59 -195 -149 -213 -67 -13 -220 2 -250 25 -16 12 -43 62 -77 143 -28 68 -90 216 -137 329 -196 474 -341 738 -525 960 -64 78 -69 81 -102 77 -19 -3 -62 -15 -95 -27 -129 -47 -303 -1 -348 93 -16 31 -17 42 -7 72 24 73 114 146 222 180 l56 18 21 101 c26 127 45 252 66 431 31 264 64 443 105 560 49 142 153 243 285 275 59 15 181 10 261 -10z" />
      </g>
    </g>
    <g
      id="l6LSJVpuKnxofNdrXBpy9sh"
      fill="rgb(255,255,255)"
      style="transform: none;">
      <g>
        <path
          id="pfDx3IDT3"
          d="M1393 4236 c-17 -8 -38 -28 -47 -44 -48 -92 -53 -421 -11 -707 70 -478 310 -1345 503 -1815 l59 -145 -65 -3 c-84 -4 -257 22 -369 54 -106 31 -219 88 -297 151 -77 63 -146 113 -156 113 -5 0 -22 -12 -39 -26 -87 -73 -72 -284 30 -411 148 -183 549 -315 1119 -368 324 -30 423 -17 471 57 18 29 20 44 15 113 -5 89 -41 206 -79 264 -16 23 -29 64 -37 116 -17 114 -59 279 -135 536 -201 678 -257 887 -319 1207 -43 221 -65 390 -72 557 -3 72 -10 147 -15 167 -29 113 -171 180 -410 192 -89 5 -121 3 -146 -8z" />
        <path
          id="pbOTmqHWF"
          d="M3119 4188 c-122 -14 -219 -73 -284 -172 -71 -106 -116 -297 -160 -671 -21 -179 -40 -304 -66 -431 l-21 -101 -56 -18 c-68 -21 -148 -70 -184 -113 -74 -88 -59 -213 30 -265 100 -58 299 -62 400 -8 16 9 28 -1 85 -70 183 -220 328 -486 524 -959 47 -113 109 -261 137 -329 33 -80 61 -131 77 -143 17 -13 54 -21 134 -28 246 -22 312 31 331 265 17 220 -102 548 -315 865 -187 280 -387 483 -627 640 -43 28 -80 53 -82 55 -2 2 3 16 11 32 31 59 81 216 138 436 172 657 224 667 741 144 155 -156 169 -168 200 -165 46 4 67 46 74 144 5 67 2 91 -20 159 -80 249 -326 505 -626 649 -154 74 -297 102 -441 84z" />
      </g>
    </g></svg>